<svg xmlns="http://www.w3.org/2000/svg" xmlns:xlink="http://www.w3.org/1999/xlink" fill="none" stroke="#000" stroke-linecap="round" version="1.1" viewBox="0 0 320 320"><defs><path id="r1"><animate id="p1" attributeName="d" dur="6s" repeatCount="indefinite" values="m160,160l0,0 0,0;m130,110l30,-17 30,17;m130,60l30,-17 30,17;m160,20l0,0 0,0"/><animate attributeName="stroke-width" begin="p1.begin" dur="6s" repeatCount="indefinite" values="0;4;4;4;0"/></path><path id="r2"><animate attributeName="d" begin="p1.begin+1s" dur="6s" repeatCount="indefinite" values="m160,160l0,0 0,0;m130,110l30,-17 30,17;m130,60l30,-17 30,17;m160,20l0,0 0,0"/><animate attributeName="stroke-width" begin="p1.begin+1s" dur="6s" repeatCount="indefinite" values="0;4;4;4;0"/></path><path id="r3"><animate attributeName="d" begin="p1.begin+2s" dur="6s" repeatCount="indefinite" values="m160,160l0,0 0,0;m130,110l30,-17 30,17;m130,60l30,-17 30,17;m160,20l0,0 0,0"/><animate attributeName="stroke-width" begin="p1.begin+2s" dur="6s" repeatCount="indefinite" values="0;4;4;4;0"/></path><path id="r4"><animate id="p1" attributeName="d" begin="p1.begin+3s" dur="6s" repeatCount="indefinite" values="m160,160l0,0 0,0;m130,110l30,-17 30,17;m130,60l30,-17 30,17;m160,20l0,0 0,0"/><animate attributeName="stroke-width" begin="p1.begin+3s" dur="6s" repeatCount="indefinite" values="0;4;4;4;0"/></path><path id="r5"><animate attributeName="d" begin="p1.begin+4s" dur="6s" repeatCount="indefinite" values="m160,160l0,0 0,0;m130,110l30,-17 30,17;m130,60l30,-17 30,17;m160,20l0,0 0,0"/><animate attributeName="stroke-width" begin="p1.begin+4s" dur="6s" repeatCount="indefinite" values="0;4;4;4;0"/></path><path id="r6"><animate attributeName="d" begin="p1.begin+5s" dur="6s" repeatCount="indefinite" values="m160,160l0,0 0,0;m130,110l30,-17 30,17;m130,60l30,-17 30,17;m160,20l0,0 0,0"/><animate attributeName="stroke-width" begin="p1.begin+5s" dur="6s" repeatCount="indefinite" values="0;4;4;4;0"/></path></defs><use xlink:href="#r1"/><use transform="rotate(60 160 160)" xlink:href="#r1"/><use transform="rotate(120 160 160)" xlink:href="#r1"/><use transform="rotate(180 160 160)" xlink:href="#r1"/><use transform="rotate(240 160 160)" xlink:href="#r1"/><use transform="rotate(300 160 160)" xlink:href="#r1"/><use transform="rotate(30 160 160)" xlink:href="#r2"/><use transform="rotate(90 160 160)" xlink:href="#r2"/><use transform="rotate(150 160 160)" xlink:href="#r2"/><use transform="rotate(210 160 160)" xlink:href="#r2"/><use transform="rotate(270 160 160)" xlink:href="#r2"/><use transform="rotate(330 160 160)" xlink:href="#r2"/><use xlink:href="#r3"/><use transform="rotate(60 160 160)" xlink:href="#r3"/><use transform="rotate(120 160 160)" xlink:href="#r3"/><use transform="rotate(180 160 160)" xlink:href="#r3"/><use transform="rotate(240 160 160)" xlink:href="#r3"/><use transform="rotate(300 160 160)" xlink:href="#r3"/><use transform="rotate(30 160 160)" xlink:href="#r4"/><use transform="rotate(90 160 160)" xlink:href="#r4"/><use transform="rotate(150 160 160)" xlink:href="#r4"/><use transform="rotate(210 160 160)" xlink:href="#r4"/><use transform="rotate(270 160 160)" xlink:href="#r4"/><use transform="rotate(330 160 160)" xlink:href="#r4"/><use xlink:href="#r5"/><use transform="rotate(60 160 160)" xlink:href="#r5"/><use transform="rotate(120 160 160)" xlink:href="#r5"/><use transform="rotate(180 160 160)" xlink:href="#r5"/><use transform="rotate(240 160 160)" xlink:href="#r5"/><use transform="rotate(300 160 160)" xlink:href="#r5"/><use transform="rotate(30 160 160)" xlink:href="#r6"/><use transform="rotate(90 160 160)" xlink:href="#r6"/><use transform="rotate(150 160 160)" xlink:href="#r6"/><use transform="rotate(210 160 160)" xlink:href="#r6"/><use transform="rotate(270 160 160)" xlink:href="#r6"/><use transform="rotate(330 160 160)" xlink:href="#r6"/></svg>